<?xml version="1.0" encoding="utf-8"?>
<!-- Generator: Adobe Illustrator 23.0.2, SVG Export Plug-In . SVG Version: 6.00 Build 0)  -->
<svg version="1.1" id="Layer_1" xmlns="http://www.w3.org/2000/svg" x="0px" y="0px"
     viewBox="0 0 727.98 72" style="enable-background:new 0 0 727.98 72;" xml:space="preserve"
     width="727.98" height="72">
<style type="text/css">
	.st0{fill:#F0EFF0;}
	.st1{opacity:0.17;}
	.st2{fill:#303030;}
	.st3{fill:#FFFFFF;}
</style>
  <g>
	<rect x="1" y="1" class="st0" width="725.98" height="70"/>
</g>
  <g class="st1">
	<rect x="10.75" y="10.78" class="st2" width="66" height="9"/>
</g>
  <g class="st1">
	<rect x="10.75" y="26.28" class="st2" width="34" height="9"/>
</g>
  <g class="st1">
	<rect x="102.7" y="10.78" class="st2" width="114.5" height="9"/>
</g>
  <g class="st1">
	<rect x="102.7" y="26.28" class="st2" width="49" height="9"/>
</g>
  <g class="st1">
	<rect x="345.7" y="10.78" class="st2" width="85.5" height="9"/>
</g>
  <g class="st1">
	<rect x="345.7" y="26.28" class="st2" width="77" height="9"/>
</g>
  <g class="st1">
	<rect x="506.7" y="10.78" class="st2" width="54.5" height="9"/>
</g>
  <g class="st1">
	<rect x="506.7" y="26.28" class="st2" width="39" height="9"/>
</g>
  <g>
	<path class="st3" d="M727.98,72H0V0h727.98V72z M1,71h725.98V1H1V71z"/>
</g>
  <g>
	<rect x="91" y="1" class="st3" width="2" height="70"/>
</g>
  <g>
	<rect x="336" y="1" class="st3" width="2" height="70"/>
</g>
  <g>
	<rect x="496.75" y="1" class="st3" width="1.5" height="70"/>
</g>
</svg>
